<svg width="41" height="42" viewBox="0 0 41 42" fill="none" xmlns="http://www.w3.org/2000/svg">
<path d="M20.5 41.5C31.8218 41.5 41 32.3218 41 21C41 9.67816 31.8218 0.5 20.5 0.5C9.17816 0.5 0 9.67816 0 21C0 32.3218 9.17816 41.5 20.5 41.5Z" fill="url(#paint0_linear_218_1711)"/>
<path d="M20.5 41.5C31.8218 41.5 41 32.3218 41 21C41 9.67816 31.8218 0.5 20.5 0.5C9.17816 0.5 0 9.67816 0 21C0 32.3218 9.17816 41.5 20.5 41.5Z" fill="url(#paint1_radial_218_1711)"/>
<path d="M18.781 7.93993C19.102 8.26473 19.2823 8.707 19.2812 9.16865C19.2785 10.257 19.2761 11.3453 19.2743 12.4337C20.0914 12.4319 20.9085 12.4319 21.7256 12.4337C21.7238 11.3453 21.7215 10.257 21.7188 9.16865C21.7176 8.707 21.8979 8.26473 22.2189 7.93993C21.073 7.93409 19.927 7.93409 18.781 7.93993Z" fill="url(#paint2_linear_218_1711)"/>
<path d="M22.9203 6.20507C22.9308 7.56368 21.8462 8.65683 20.5001 8.65723C19.1541 8.65683 18.0694 7.56376 18.0799 6.20507C18.0908 4.84687 19.1754 3.73242 20.5001 3.73242C21.8248 3.73234 22.9094 4.84703 22.9203 6.20507Z" fill="url(#paint3_linear_218_1711)"/>
<path d="M21.1071 7.42643C19.7647 7.42355 18.6823 6.32896 18.6914 4.96979C18.6922 4.81908 18.707 4.67174 18.7332 4.52832C18.3165 4.98776 18.0839 5.5847 18.0799 6.20492C18.0694 7.56344 19.1541 8.65667 20.5001 8.65707C21.6966 8.65675 22.6869 7.79214 22.8836 6.64567C22.6585 6.89276 22.3841 7.08991 22.0781 7.22439C21.7721 7.35887 21.4413 7.4277 21.1071 7.42643Z" fill="url(#paint4_linear_218_1711)"/>
<path d="M16.8323 10.8058C15.4831 10.8176 14.376 11.9302 14.3651 13.2822C14.359 14.0988 14.3543 14.9155 14.3508 15.7322C16.4006 15.7213 18.4503 15.7158 20.5 15.7158V10.791C19.2774 10.7909 18.0548 10.7959 16.8323 10.8058Z" fill="url(#paint5_linear_218_1711)"/>
<path d="M24.1676 10.8058C22.9451 10.796 21.7225 10.791 20.5 10.791C19.1506 10.7912 18.0509 11.8997 18.046 13.258C18.0436 14.0781 18.0416 14.8982 18.0403 15.7184C20.9099 15.7123 23.7796 15.7169 26.6492 15.7322C26.6457 14.9155 26.641 14.0988 26.6349 13.2822C26.6239 11.9301 25.5169 10.8175 24.1676 10.8058Z" fill="url(#paint6_linear_218_1711)"/>
<path d="M24.1677 10.8059C21.7226 10.7861 19.2774 10.7861 16.8323 10.8059C15.4831 10.8176 14.376 11.9302 14.3651 13.2822C14.359 14.0988 14.3543 14.9155 14.3508 15.7322C18.4503 15.7104 22.5498 15.7104 26.6492 15.7322C26.6458 14.9155 26.641 14.0988 26.635 13.2822C26.624 11.9301 25.517 10.8175 24.1677 10.8059Z" fill="url(#paint7_linear_218_1711)"/>
<path d="M10.6841 13.3268C8.65324 13.3616 6.9752 15.011 6.96255 16.9958C6.93668 21.4001 6.99794 25.8044 7.14625 30.2087C7.21703 32.1932 8.90532 33.9016 10.8906 33.9872C13.293 34.0854 15.6953 34.1468 18.0976 34.1713C18.0426 27.2001 18.0254 20.229 18.046 13.2578C15.5921 13.2669 13.1381 13.2899 10.6841 13.3268Z" fill="url(#paint8_linear_218_1711)"/>
<path d="M30.3159 13.3271C29.4979 13.3149 28.6799 13.3041 27.8619 13.2949C27.9238 20.2211 27.8722 27.1472 27.707 34.0734C28.5078 34.0488 29.3086 34.0202 30.1094 33.9875C32.0947 33.9021 33.7829 32.1934 33.8537 30.209C34.0021 25.8047 34.0633 21.4004 34.0374 16.9961C34.0248 15.0112 32.3468 13.3619 30.3159 13.3271Z" fill="url(#paint9_linear_218_1711)"/>
<path d="M31.4258 30.3024C31.5472 25.8628 31.5973 21.4215 31.5761 16.9803C31.5656 14.9781 29.8929 13.3216 27.862 13.2953C24.59 13.2585 21.3181 13.2462 18.0461 13.2585C16.015 13.2678 14.3531 14.9306 14.3466 16.9577C14.3349 21.4495 14.3627 25.9413 14.4301 30.4326C14.4646 32.4593 16.1123 34.1504 18.0976 34.1721C21.3008 34.2049 24.5039 34.1721 27.707 34.074C29.6924 34.0098 31.3671 32.3044 31.4258 30.3024Z" fill="url(#paint10_linear_218_1711)"/>
<path d="M9.49097 26.6689C9.50594 27.4764 9.52332 28.2837 9.54302 29.0911C9.55967 29.7584 10.1193 30.3209 10.7883 30.3418C12.0023 30.379 13.2163 30.4092 14.4303 30.4325C15.615 29.2305 16.8137 28.0143 18.021 26.7905C15.1774 26.7756 12.3339 26.7351 9.49097 26.6689Z" fill="url(#paint11_linear_218_1711)"/>
<path d="M10.7357 27.9113C11.9562 27.9405 13.1768 27.9643 14.3973 27.9826C15.9838 26.3733 17.5906 24.7415 19.2055 23.1025C17.588 21.4597 15.9677 19.8197 14.3444 18.1826C13.1133 18.1842 11.8822 18.1862 10.651 18.1888C9.97221 18.1906 9.41871 18.7352 9.41943 19.4025C9.422 21.8247 9.44586 24.2469 9.49086 26.6691C9.50352 27.3365 10.0629 27.8947 10.7357 27.9113Z" fill="url(#paint12_linear_218_1711)"/>
<path d="M14.3838 26.7574C14.3963 27.9825 14.4117 29.2074 14.4302 30.4325C19.6906 30.5332 24.9528 30.5029 30.2118 30.3418C30.8808 30.3207 31.4404 29.7585 31.4571 29.0911C31.4768 28.2837 31.4942 27.4764 31.5091 26.6689C25.8017 26.8017 20.0923 26.8312 14.3838 26.7574Z" fill="url(#paint13_linear_218_1711)"/>
<path d="M30.349 18.1888C25.0141 18.1779 19.6793 18.1759 14.3444 18.1826C14.3411 21.4492 14.3587 24.7159 14.3972 27.9826C19.6862 28.0617 24.9762 28.038 30.2643 27.9113C30.937 27.8947 31.4965 27.3364 31.5091 26.6691C31.5541 24.2469 31.5779 21.8247 31.5806 19.4025C31.5813 18.7351 31.0278 18.1905 30.349 18.1888Z" fill="url(#paint14_linear_218_1711)"/>
<path d="M29.7174 23.0559C29.7026 24.734 28.3112 26.1224 26.6223 26.1445C24.9332 26.1658 23.5692 24.7961 23.5725 23.0977C23.5767 21.3991 24.9554 20.0215 26.6554 20.0195C28.3551 20.0187 29.7316 21.3776 29.7174 23.0559Z" fill="url(#paint15_linear_218_1711)"/>
<path d="M19.4351 23.1025C18.9728 23.1021 18.6658 23.5992 18.8925 24.0033C19.2088 24.5677 19.8105 24.95 20.5001 24.9499C21.1897 24.9499 21.7914 24.5676 22.1078 24.0033C22.3344 23.599 22.0274 23.102 21.5651 23.1025C20.8551 23.1033 20.1451 23.1033 19.4351 23.1025Z" fill="url(#paint16_linear_218_1711)"/>
<path d="M19.4351 23.1025C18.9728 23.1021 18.6658 23.5992 18.8925 24.0033C19.2088 24.5677 19.8105 24.95 20.5001 24.9499C21.1897 24.9499 21.7914 24.5676 22.1078 24.0033C22.3344 23.599 22.0274 23.102 21.5651 23.1025C20.8551 23.1033 20.1451 23.1033 19.4351 23.1025Z" fill="url(#paint17_radial_218_1711)"/>
<path d="M27.8739 23.0733C27.8695 23.748 27.3151 24.3013 26.6374 24.3074C25.9597 24.3136 25.4132 23.768 25.416 23.0899C25.4188 22.4121 25.9711 21.8604 26.6507 21.8574C27.3301 21.8544 27.8784 22.3985 27.8739 23.0733Z" fill="url(#paint18_linear_218_1711)"/>
<path d="M27.8739 23.0733C27.8695 23.748 27.3151 24.3013 26.6374 24.3074C25.9597 24.3136 25.4132 23.768 25.416 23.0899C25.4188 22.4121 25.9711 21.8604 26.6507 21.8574C27.3301 21.8544 27.8784 22.3985 27.8739 23.0733Z" fill="url(#paint19_radial_218_1711)"/>
<path d="M11.2826 23.0559C11.2974 24.7341 12.6888 26.1224 14.3777 26.1445C15.1889 25.1278 16.0007 24.1114 16.8129 23.0954C15.9913 22.0692 15.1685 21.0439 14.3446 20.0195C12.6449 20.0187 11.2682 21.3777 11.2826 23.0559Z" fill="url(#paint20_linear_218_1711)"/>
<path d="M14.3447 20.0195C14.3475 22.0612 14.3586 24.1029 14.3778 26.1445C16.067 26.1659 17.4309 24.7964 17.4276 23.0977C17.4234 21.3992 16.0447 20.0215 14.3447 20.0195Z" fill="url(#paint21_linear_218_1711)"/>
<path d="M13.1262 23.0733C13.1308 23.748 13.6851 24.3013 14.3628 24.3074C14.7691 23.9027 15.1763 23.4968 15.5842 23.0899C15.1729 22.6788 14.7614 22.268 14.3495 21.8574C13.6701 21.8544 13.1217 22.3985 13.1262 23.0733Z" fill="url(#paint22_linear_218_1711)"/>
<path d="M14.3496 21.8574C14.3527 22.6741 14.3571 23.4908 14.3628 24.3074C15.0405 24.3136 15.587 23.768 15.5842 23.0899C15.5814 22.4121 15.0291 21.8604 14.3496 21.8574Z" fill="url(#paint23_linear_218_1711)"/>
<path d="M15.5842 23.0899C15.5869 23.7679 15.0405 24.3136 14.3628 24.3074C13.6851 24.3012 13.1308 23.7478 13.1262 23.0733C13.1218 22.3987 13.6701 21.8546 14.3496 21.8574C15.0291 21.8605 15.5814 22.4119 15.5842 23.0899Z" fill="url(#paint24_radial_218_1711)"/>
<defs>
<linearGradient id="paint0_linear_218_1711" x1="6.00426" y1="35.4957" x2="34.9957" y2="6.50426" gradientUnits="userSpaceOnUse">
<stop stop-color="#0056E0"/>
<stop offset="1" stop-color="#85FFE0"/>
</linearGradient>
<radialGradient id="paint1_radial_218_1711" cx="0" cy="0" r="1" gradientUnits="userSpaceOnUse" gradientTransform="translate(20.5 23.1113) scale(22.8206)">
<stop stop-color="#0072FF"/>
<stop offset="0.086" stop-color="#1E92F8" stop-opacity="0.914"/>
<stop offset="0.197" stop-color="#3DB3F1" stop-opacity="0.803"/>
<stop offset="0.317" stop-color="#58CFEB" stop-opacity="0.683"/>
<stop offset="0.445" stop-color="#6CE4E6" stop-opacity="0.555"/>
<stop offset="0.587" stop-color="#7AF3E3" stop-opacity="0.413"/>
<stop offset="0.753" stop-color="#82FCE1" stop-opacity="0.247"/>
<stop offset="1" stop-color="#85FFE0" stop-opacity="0"/>
</radialGradient>
<linearGradient id="paint2_linear_218_1711" x1="10.9014" y1="19.5388" x2="28.0207" y2="2.41942" gradientUnits="userSpaceOnUse">
<stop stop-color="#389FFF"/>
<stop offset="0.121" stop-color="#45AFFA"/>
<stop offset="0.573" stop-color="#73E9E7"/>
<stop offset="0.79" stop-color="#85FFE0"/>
<stop offset="0.881" stop-color="#9DFFE6"/>
<stop offset="1" stop-color="#C2FFF0"/>
</linearGradient>
<linearGradient id="paint3_linear_218_1711" x1="12.6406" y1="14.0675" x2="22.413" y2="4.29497" gradientUnits="userSpaceOnUse">
<stop stop-color="#85FFE0"/>
<stop offset="0.234" stop-color="#9DFFE6"/>
<stop offset="0.725" stop-color="#DAFFF6"/>
<stop offset="1" stop-color="white"/>
</linearGradient>
<linearGradient id="paint4_linear_218_1711" x1="18.2378" y1="8.47225" x2="22.9519" y2="3.75813" gradientUnits="userSpaceOnUse">
<stop stop-color="#85FFE0"/>
<stop offset="0.234" stop-color="#9DFFE6"/>
<stop offset="0.725" stop-color="#DAFFF6"/>
<stop offset="1" stop-color="white"/>
</linearGradient>
<linearGradient id="paint5_linear_218_1711" x1="0.879366" y1="30.5476" x2="33.2043" y2="-1.77741" gradientUnits="userSpaceOnUse">
<stop stop-color="#230BE0"/>
<stop offset="0.5" stop-color="#0056E0"/>
<stop offset="1" stop-color="#85FFE0"/>
</linearGradient>
<linearGradient id="paint6_linear_218_1711" x1="4.72953" y1="31.6031" x2="32.6657" y2="3.66694" gradientUnits="userSpaceOnUse">
<stop stop-color="#230BE0"/>
<stop offset="0.5" stop-color="#0056E0"/>
<stop offset="1" stop-color="#85FFE0"/>
</linearGradient>
<linearGradient id="paint7_linear_218_1711" x1="20.5" y1="17.0443" x2="20.5" y2="6.8616" gradientUnits="userSpaceOnUse">
<stop stop-color="#170794"/>
<stop offset="0.018" stop-color="#190798" stop-opacity="0.982"/>
<stop offset="0.218" stop-color="#2F09BD" stop-opacity="0.782"/>
<stop offset="0.418" stop-color="#400BDA" stop-opacity="0.582"/>
<stop offset="0.617" stop-color="#4C0CEE" stop-opacity="0.384"/>
<stop offset="0.812" stop-color="#540DFB" stop-opacity="0.188"/>
<stop offset="1" stop-color="#560DFF" stop-opacity="0"/>
</linearGradient>
<linearGradient id="paint8_linear_218_1711" x1="-18.5563" y1="55.9389" x2="26.4902" y2="10.8925" gradientUnits="userSpaceOnUse">
<stop stop-color="#389FFF"/>
<stop offset="0.121" stop-color="#45AFFA"/>
<stop offset="0.573" stop-color="#73E9E7"/>
<stop offset="0.79" stop-color="#85FFE0"/>
<stop offset="0.881" stop-color="#9DFFE6"/>
<stop offset="1" stop-color="#C2FFF0"/>
</linearGradient>
<linearGradient id="paint9_linear_218_1711" x1="-9.21612" y1="62.5495" x2="33.3237" y2="20.0096" gradientUnits="userSpaceOnUse">
<stop stop-color="#85FFE0"/>
<stop offset="0.234" stop-color="#9DFFE6"/>
<stop offset="0.725" stop-color="#DAFFF6"/>
<stop offset="1" stop-color="white"/>
</linearGradient>
<linearGradient id="paint10_linear_218_1711" x1="-14.2434" y1="60.7397" x2="58.4101" y2="-11.9139" gradientUnits="userSpaceOnUse">
<stop stop-color="#85FFE0"/>
<stop offset="0.234" stop-color="#9DFFE6"/>
<stop offset="0.725" stop-color="#DAFFF6"/>
<stop offset="1" stop-color="white"/>
</linearGradient>
<linearGradient id="paint11_linear_218_1711" x1="9.62422" y1="30.8871" x2="72.9067" y2="-32.3954" gradientUnits="userSpaceOnUse">
<stop stop-color="#230BE0"/>
<stop offset="0.5" stop-color="#0056E0"/>
<stop offset="1" stop-color="#85FFE0"/>
</linearGradient>
<linearGradient id="paint12_linear_218_1711" x1="-7.65667" y1="43.0099" x2="38.729" y2="-3.37578" gradientUnits="userSpaceOnUse">
<stop stop-color="#230BE0"/>
<stop offset="0.5" stop-color="#0056E0"/>
<stop offset="1" stop-color="#85FFE0"/>
</linearGradient>
<linearGradient id="paint13_linear_218_1711" x1="0.984797" y1="50.1048" x2="46.2091" y2="4.8804" gradientUnits="userSpaceOnUse">
<stop stop-color="#230BE0"/>
<stop offset="0.5" stop-color="#0056E0"/>
<stop offset="1" stop-color="#85FFE0"/>
</linearGradient>
<linearGradient id="paint14_linear_218_1711" x1="-7.14683" y1="52.7446" x2="38.6105" y2="6.98719" gradientUnits="userSpaceOnUse">
<stop stop-color="#230BE0"/>
<stop offset="0.5" stop-color="#0056E0"/>
<stop offset="1" stop-color="#85FFE0"/>
</linearGradient>
<linearGradient id="paint15_linear_218_1711" x1="17.4751" y1="32.2345" x2="33.994" y2="15.7156" gradientUnits="userSpaceOnUse">
<stop stop-color="#389FFF"/>
<stop offset="0.121" stop-color="#45AFFA"/>
<stop offset="0.573" stop-color="#73E9E7"/>
<stop offset="0.79" stop-color="#85FFE0"/>
<stop offset="0.881" stop-color="#9DFFE6"/>
<stop offset="1" stop-color="#C2FFF0"/>
</linearGradient>
<linearGradient id="paint16_linear_218_1711" x1="11.3152" y1="32.9302" x2="40.3822" y2="3.86322" gradientUnits="userSpaceOnUse">
<stop stop-color="#230BE0"/>
<stop offset="0.5" stop-color="#0056E0"/>
<stop offset="1" stop-color="#85FFE0"/>
</linearGradient>
<radialGradient id="paint17_radial_218_1711" cx="0" cy="0" r="1" gradientUnits="userSpaceOnUse" gradientTransform="translate(20.5901 25.5601) scale(4.58191 4.58191)">
<stop stop-color="#560DFF" stop-opacity="0"/>
<stop offset="0.188" stop-color="#540DFB" stop-opacity="0.188"/>
<stop offset="0.384" stop-color="#4C0CEE" stop-opacity="0.384"/>
<stop offset="0.582" stop-color="#400BDA" stop-opacity="0.582"/>
<stop offset="0.782" stop-color="#2F09BD" stop-opacity="0.782"/>
<stop offset="0.982" stop-color="#190798" stop-opacity="0.982"/>
<stop offset="1" stop-color="#170794"/>
</radialGradient>
<linearGradient id="paint18_linear_218_1711" x1="13.4143" y1="36.3104" x2="42.7579" y2="6.96675" gradientUnits="userSpaceOnUse">
<stop stop-color="#230BE0"/>
<stop offset="0.5" stop-color="#0056E0"/>
<stop offset="1" stop-color="#85FFE0"/>
</linearGradient>
<radialGradient id="paint19_radial_218_1711" cx="0" cy="0" r="1" gradientUnits="userSpaceOnUse" gradientTransform="translate(26.645 23.0825) scale(1.97144)">
<stop stop-color="#560DFF" stop-opacity="0"/>
<stop offset="0.378" stop-color="#550DFD" stop-opacity="0.378"/>
<stop offset="0.549" stop-color="#500CF6" stop-opacity="0.549"/>
<stop offset="0.677" stop-color="#490CE9" stop-opacity="0.677"/>
<stop offset="0.785" stop-color="#3E0BD7" stop-opacity="0.785"/>
<stop offset="0.879" stop-color="#3109BF" stop-opacity="0.88"/>
<stop offset="0.964" stop-color="#2008A3" stop-opacity="0.964"/>
<stop offset="1" stop-color="#170794"/>
</radialGradient>
<linearGradient id="paint20_linear_218_1711" x1="8.64225" y1="28.1583" x2="24.9332" y2="11.8673" gradientUnits="userSpaceOnUse">
<stop stop-color="#389FFF"/>
<stop offset="0.121" stop-color="#45AFFA"/>
<stop offset="0.573" stop-color="#73E9E7"/>
<stop offset="0.79" stop-color="#85FFE0"/>
<stop offset="0.881" stop-color="#9DFFE6"/>
<stop offset="1" stop-color="#C2FFF0"/>
</linearGradient>
<linearGradient id="paint21_linear_218_1711" x1="5.62382" y1="32.4601" x2="21.9645" y2="16.1193" gradientUnits="userSpaceOnUse">
<stop stop-color="#389FFF"/>
<stop offset="0.121" stop-color="#45AFFA"/>
<stop offset="0.573" stop-color="#73E9E7"/>
<stop offset="0.79" stop-color="#85FFE0"/>
<stop offset="0.881" stop-color="#9DFFE6"/>
<stop offset="1" stop-color="#C2FFF0"/>
</linearGradient>
<linearGradient id="paint22_linear_218_1711" x1="6.75476" y1="30.4286" x2="35.7351" y2="1.44834" gradientUnits="userSpaceOnUse">
<stop stop-color="#230BE0"/>
<stop offset="0.5" stop-color="#0056E0"/>
<stop offset="1" stop-color="#85FFE0"/>
</linearGradient>
<linearGradient id="paint23_linear_218_1711" x1="1.41363" y1="36.2818" x2="30.4082" y2="7.2873" gradientUnits="userSpaceOnUse">
<stop stop-color="#230BE0"/>
<stop offset="0.5" stop-color="#0056E0"/>
<stop offset="1" stop-color="#85FFE0"/>
</linearGradient>
<radialGradient id="paint24_radial_218_1711" cx="0" cy="0" r="1" gradientUnits="userSpaceOnUse" gradientTransform="translate(14.3552 23.0825) scale(1.97144 1.97144)">
<stop stop-color="#560DFF" stop-opacity="0"/>
<stop offset="0.378" stop-color="#550DFD" stop-opacity="0.378"/>
<stop offset="0.549" stop-color="#500CF6" stop-opacity="0.549"/>
<stop offset="0.677" stop-color="#490CE9" stop-opacity="0.677"/>
<stop offset="0.785" stop-color="#3E0BD7" stop-opacity="0.785"/>
<stop offset="0.879" stop-color="#3109BF" stop-opacity="0.88"/>
<stop offset="0.964" stop-color="#2008A3" stop-opacity="0.964"/>
<stop offset="1" stop-color="#170794"/>
</radialGradient>
</defs>
</svg>
